<?xml version="1.0" encoding="UTF-8"?>
<svg width="1200pt" height="1200pt" version="1.1" viewBox="0 0 1200 1200" xmlns="http://www.w3.org/2000/svg">
 <path d="m883.93 112.41c-3.5078-1.0117-8.8867-0.13281-9-4.5h-31.5c10.461 10.145-19.273 18.617-27 13.5-3.6953-2.457 29.25-8.457 9-13.5h-9c-12.582 14.68-37.914 0.73047-54 18-0.20703-6.207 2.1172-9.8828 4.5-13.5-6.7305-0.76953-16.613 1.5938-18-4.5h-4.5c-6.2812 6.8828-23.289 12.789-31.5 4.5v-4.5h-49.52c0.32031 10.594-75.133 8.9453-67.5 0h-18c-12.227 12.43-43.875 12.562-58.5 18 3.375-8.4922 13.426-3.1328 4.5-13.5-66.656 9.7695-179.29-15.844-220.5 22.5v22.5c14.852 42.582 76.48 15.898 112.5 31.5 5.457 89.793 0.46875 139.76 4.5 220.5-76.164 53.043-110.27 135.71-112.5 242.98 77.062 43.727 174.99-7.2578 265.5 22.5-7.125 96.844 17.793 160.16 0 252 21.77 28.895-23.195 136.35 31.5 144 31.07-49.105 13.5-134.64 13.5-211.5 0-71.062 10.895-142.12 0-198 76.82-13.18 184.14 4.1445 261-9 1.7812-83.043-18.168-143.08-54-189-21.508-27.543-52.633-38.137-58.5-63-3.1875-13.426 3.75-28.914 4.5-40.5 4.293-67.238-0.75-126.49 8.9805-184.5 3.207 6.9766 33.562 18.242 13.5 9 61.148-2.6797 120.29-9.0195 90.039-71.98zm-40.516 499.48c-163.48 8.8125-314.51 6.4688-486 9 6.5234-49.727 31.086-104.77 58.5-135 3.9766-4.3867 10.461 6.8828 13.5 4.5 10.688-8.3828 21.805-41.68 27-45-9.168 5.8516 22.52 8.9453 31.5 0 7.668-25.445-11.512-23.398 4.5-40.5-7.6484-1.6484-8.4922 3.5234-9 9-13.164-6.5078 20.793-31.969-9-31.5 25.875-27.227 17.477-87.148 0-126 0.84375-5.1016 4.5195-2.4922 4.5 0 14.945-8.832 7.875-47.699 4.5-72 121.52-0.48828 174.09-5.0234 233.98-4.5 2.9062 98.082-0.11328 147.79 4.5 252 64.293 44.645 100.09 91.238 121.52 180z" fill-rule="evenodd"/>
</svg>
